<svg width="1980" height="1128" viewBox="0 0 1980 1128" fill="none" xmlns="http://www.w3.org/2000/svg">
<g clip-path="url(#clip0_3_422)">
<path d="M1769.2 249.898C1760.67 236.213 1753.26 222.099 1748.6 206.291C1743.9 190.316 1735.82 153.381 1743.88 138.323C1755.17 117.232 1785.53 136.264 1799.88 144.328C1803.11 139.256 1797.82 128.768 1796.39 122.08C1788.99 87.4138 1797.69 34.5543 1820.13 6.91483C1831.94 -7.62873 1850.95 11.3022 1858.77 20.9756C1891.63 61.6121 1901.5 99.002 1895.75 150.338C1931.45 114.885 1977.16 85.9598 1974.35 163.643C1972.81 206.603 1965.98 224.457 1942.57 260.129C1957.38 256.457 1964.57 253.264 1976.45 264.861L1980 275.931V301.033C1978.21 309.636 1977.4 318.021 1975.42 326.472C1968.05 357.967 1955.69 375.215 1935.31 398.718C1943.75 397.44 1950.75 396.125 1958.16 401.579C1966.5 407.723 1966.99 418.933 1965.77 428.288C1962.09 456.549 1952.03 484.924 1934.34 507.514C1926.67 517.326 1918.13 525.012 1908.52 532.733C1916.87 534.491 1925.15 535.188 1930.24 542.771C1934.17 548.636 1933.72 556.838 1932.11 563.515C1925.03 592.864 1909.69 622.293 1887.76 643.281C1881.44 649.33 1870.06 656.839 1862.99 661.64C1879.95 667.566 1884.23 678.983 1877.93 695.537C1863.89 732.45 1837.77 765.338 1800.79 781.035C1798.85 781.863 1797.62 782.438 1795.92 783.703C1821.43 807.663 1836.4 835.333 1837.82 870.936C1839.09 902.637 1827.45 937.824 1805.46 961.112C1803.41 963.262 1801.27 965.315 1799.03 967.267C1812.07 1047.52 1736.69 1111.76 1663.07 1122.58C1608.74 1130.56 1551.99 1122.36 1506.81 1089.57C1502.05 1086.13 1497.43 1082.5 1492.95 1078.72C1468.81 1103.59 1449.74 1115.46 1415.11 1123.75C1406.9 1125.71 1398.8 1126.31 1390.83 1128H1355C1325.89 1121.31 1323.78 1124.12 1294.86 1108.54C1285.31 1114.27 1271.79 1120.37 1260.56 1121.73C1230.49 1124.5 1198.7 1124.32 1168.33 1123.69C1126.29 1122.83 1092.99 1130.74 1056.74 1105.61C1029.8 1120.64 1018.94 1123.12 988.502 1128H955.725C952.605 1127.21 941.695 1125.83 937.499 1125.02C921.705 1122 912.409 1118.06 897.925 1111.36C863.542 1129.84 824.954 1122.03 787.29 1123.68C775.953 1124.18 763.873 1123.37 752.578 1123.66C714.167 1124.67 693.575 1123.55 664.468 1096.74C622.615 1121.36 582.289 1128.92 533.659 1124.23C480.587 1119.13 438.754 1097.46 405.216 1056.17C398.017 1073.67 392.973 1086.87 379.359 1100.72C354.452 1126.32 320.879 1125.15 287.885 1123.12C274.746 1122.31 262.68 1116.92 251.06 1111.17C174.056 1147.04 75.2671 1121 30.088 1048.36C-1.63286 997.367 -4.14417 938.414 8.70722 880.986C20.2681 829.326 42.7906 778.407 80.3903 740.41C92.482 728.344 106.768 719.023 121.086 709.945C91.2368 708.708 63.0268 706.521 43.0415 680.329C32.2985 666.249 28.068 647.58 30.5842 630.046C33.9465 606.617 44.8905 593.11 63.3247 579.325C69.515 560.059 75.3585 537.326 80.9546 517.518L112.82 404.992C111.537 402.189 110.349 399.343 109.26 396.46C91.4328 348.953 131.48 304.109 179.982 302.995C225.331 301.954 271.136 303.43 316.273 302.502C387.987 301.027 456.424 319.536 482.303 393.508C516.72 326.351 568.736 293.897 644.992 296.974C690.896 298.826 719.445 309.134 754.19 338.688C768.384 317.918 789.348 302.032 815.577 302.786C870.429 304.364 919.499 289.997 957.686 338.713C985.021 303.852 1006.11 302.616 1048.39 302.406C1076.97 302.264 1093.2 300.481 1120.25 311.947C1145.68 300.293 1170.78 302.533 1198.05 302.516L1278.26 302.522H1336.11C1369.2 302.517 1388.61 300.973 1417.44 319.167C1453.14 296.497 1472.36 303.301 1512.33 302.447C1554.14 301.554 1578.11 305.426 1605.7 338.911C1632.47 302.099 1658.34 302.607 1700.81 302.45C1721.28 302.374 1733.59 302.391 1754.11 305.939C1753.98 298.276 1753.96 292.301 1754.49 284.668C1754.94 267.565 1754.61 260.028 1769.2 249.898Z" fill="#31262A"/>
<path d="M1769.2 249.898C1760.67 236.213 1753.26 222.099 1748.6 206.291C1743.9 190.316 1735.82 153.381 1743.88 138.323C1755.17 117.232 1785.53 136.264 1799.88 144.328C1803.1 139.256 1797.82 128.768 1796.39 122.08C1788.99 87.4138 1797.69 34.5543 1820.13 6.91483C1831.94 -7.62873 1850.95 11.3022 1858.77 20.9756C1891.62 61.6121 1901.5 99.002 1895.75 150.338C1931.45 114.885 1977.16 85.9598 1974.35 163.643C1972.81 206.603 1965.98 224.457 1942.57 260.129C1957.38 256.457 1964.57 253.264 1976.45 264.861L1980 275.931V301.033C1978.21 309.636 1977.4 318.021 1975.42 326.472C1968.05 357.967 1955.69 375.215 1935.31 398.718C1943.74 397.44 1950.74 396.125 1958.16 401.579C1966.5 407.723 1966.99 418.933 1965.77 428.288C1962.09 456.549 1952.03 484.924 1934.34 507.514C1926.67 517.326 1918.12 525.012 1908.52 532.733C1916.87 534.491 1925.15 535.188 1930.24 542.771C1934.17 548.636 1933.72 556.838 1932.1 563.515C1925.03 592.864 1909.69 622.292 1887.76 643.281C1881.44 649.33 1870.06 656.839 1862.99 661.64C1879.95 667.566 1884.23 678.983 1877.93 695.537C1863.89 732.45 1837.77 765.338 1800.78 781.035C1798.85 781.863 1797.62 782.438 1795.92 783.703C1778.44 792.13 1757.03 795.369 1738.03 797.822C1712.88 801.067 1701.35 790.2 1687.91 771.402C1650.11 719.032 1646.08 651.157 1681.78 596.709C1690.48 583.439 1706.08 587.795 1716.11 596.68C1708.44 568.917 1709.89 542.298 1717.35 514.592C1722.27 496.286 1728.85 475.909 1752.56 482.676C1752.86 481.53 1747.72 463.56 1746.76 459.031C1742.01 436.584 1742.19 398.38 1752.58 377.854C1756.4 370.31 1764.51 368.392 1771.81 366.915C1755.81 335.569 1754.63 318.799 1754.48 284.668C1754.94 267.565 1754.61 260.028 1769.2 249.898Z" fill="#FFFDF1"/>
<path d="M1951.62 132.471C1957.15 141.388 1954.63 184.292 1951.36 197.32C1939.63 244.046 1912.09 269.454 1873.14 293.94L1872.08 292.993C1868.16 276.125 1870.28 241.842 1874.88 224.579C1887.23 178.263 1912.42 155.823 1951.62 132.471Z" fill="#2E8E37"/>
<path d="M1760.05 146.79C1831.64 172.607 1860.76 220.436 1863.21 295.192C1792.6 265.076 1760.75 224.386 1760.05 146.79Z" fill="#2E8E37"/>
<path d="M1832.28 20.6572C1834.65 22.2207 1838.37 26.5721 1840.38 28.8355C1886.84 81.3006 1886.97 137.2 1859.37 199.102C1809.42 142.949 1799.06 88.5799 1832.28 20.6572Z" fill="#2E8E37"/>
<path d="M1959.03 275.432L1960.18 276.113C1963.41 289.168 1957.39 323.125 1952.43 336.528C1936.69 379.005 1906.59 401.458 1867.33 420.087L1866.49 420.104L1865.46 418.586C1867.37 346.174 1891.63 304.26 1959.03 275.432Z" fill="#2E8E37"/>
<path d="M1775.2 267.079C1841.75 299.122 1862.15 349.846 1857.15 420.828C1795.41 384.119 1765.21 341.225 1775.2 267.079Z" fill="#2E8E37"/>
<path d="M1697.83 606.605C1709.46 617.072 1724.93 643.071 1730 658.195C1744.39 701.166 1734.58 736.446 1715.92 775.41C1704.72 765.744 1686.81 731.909 1682.33 716.614C1670.11 674.844 1678.26 643.643 1697.83 606.605Z" fill="#2E8E37"/>
<path d="M1846.38 681.846C1850.41 681.375 1858.16 681.466 1862.48 681.385C1839.74 742.495 1804.48 769.712 1740.09 777.905L1723 779.169C1748.67 720.849 1780.23 687.235 1846.38 681.846Z" fill="#2E8E37"/>
<path d="M1944.73 416.579L1946.77 417.019C1950.57 425.786 1937.37 464.642 1932.6 474.242C1913.51 512.653 1880.41 531.881 1840.94 545.09C1838.94 545.064 1839.8 545.364 1838.24 544.243C1842.71 504.416 1858.52 465.94 1891.36 441.491C1908.59 428.665 1924.69 422.998 1944.73 416.579Z" fill="#2E8E37"/>
<path d="M1769.28 385.951C1785.87 395.277 1805.08 414.35 1815.31 430.535C1837.6 465.809 1838.51 505.005 1829.77 544.656C1771.8 500.271 1752.9 457.712 1769.28 385.951Z" fill="#2E8E37"/>
<path d="M1909.69 553.202C1911.36 552.785 1911.71 553.003 1913.39 553.333C1916.43 561.736 1899.72 596.304 1894.47 604.74C1871.11 642.275 1836.89 655.855 1795.5 665.367C1793.61 665.575 1792.97 665.839 1791.34 664.882C1789.37 653.418 1809.97 614.987 1817.75 604.413C1840.77 573.162 1872.09 558.94 1909.69 553.202Z" fill="#2E8E37"/>
<path d="M1743.2 500.086C1746.88 502.618 1750.58 506.543 1753.8 509.692C1799.11 553.974 1802.45 606.461 1782.37 663.923C1731.05 613.569 1717.83 567.913 1743.2 500.086Z" fill="#2E8E37"/>
<path d="M1215.95 791.482C1223.49 780.163 1232.88 754.783 1235.65 741.491C1240.49 743.354 1277.41 742.419 1284.29 742.341L1297.3 742.348C1321.04 742.34 1361.35 741.255 1383.46 743.381C1394.18 743.581 1412.35 747.947 1422.09 752.646C1446.58 764.502 1460.89 775.179 1470.35 802.083C1470.6 802.788 1470.85 803.496 1471.08 804.206C1473.52 817.783 1473.54 837.58 1466.43 849.477C1450.88 884.881 1425.03 896.466 1388.98 902.772C1436.38 909.883 1438.76 937.405 1428.22 977.455C1426.82 983.805 1423.21 997.337 1427.05 1002.9C1432.59 1010.95 1457.82 1002.23 1453.84 1019.92C1446.19 1053.91 1408.08 1064.97 1378.19 1066.29C1371.46 1067.64 1364.2 1066.49 1357.4 1065.72L1349.57 1064.22C1344.49 1063.67 1339.25 1061.8 1334.61 1059.7C1314.61 1048.9 1306.8 1039.64 1303.71 1016.91C1302.8 1010.37 1303.34 1002.6 1305.06 996.216L1308.12 982.626C1309.41 976.517 1310.38 972.632 1312.25 966.61C1323.55 923.105 1302.67 925.586 1266.63 925.827L1252.7 975.841C1249.18 988.31 1245.29 999.889 1243.68 1012.75C1241.32 1031.58 1280.89 1041.47 1257.83 1058.66C1256.36 1059.73 1249.21 1061.32 1247.34 1061.41C1242.09 1062.77 1195.09 1062.93 1188.41 1062.36C1169.26 1060.73 1115.01 1065.59 1099.44 1059.89C1073.29 1045.17 1112.2 1029.1 1119.51 1016.61L1120.06 1015.65C1120.36 1013.76 1123.44 1004.85 1124.2 1002.5C1124.9 1000.74 1125.69 997.231 1126.2 995.269C1126.79 992.466 1128.57 986.937 1129.42 983.97C1138.1 957.349 1145.88 926.274 1153.83 898.912C1154.17 896.538 1155.12 894.277 1155.93 892C1158.55 879.701 1164.13 862.796 1167.47 849.787C1183.76 836.141 1199.15 820.709 1209.7 802.129C1211.74 798.556 1213.82 795.007 1215.95 791.482Z" fill="#FFFDF1"/>
<path d="M1303.71 1016.91C1304.1 1014.53 1304.1 1011.41 1306.46 1009.96C1320.82 1001.14 1337.39 1003.35 1346.8 1018.59C1351.04 1025.32 1352.31 1033.5 1350.32 1041.19C1348.37 1048.56 1343.53 1054.81 1336.88 1058.53C1336.08 1058.98 1335.44 1059.31 1334.61 1059.7C1314.61 1048.9 1306.8 1039.64 1303.71 1016.91Z" fill="#FFFDF1"/>
<path d="M1301.14 792.666C1332.93 792.323 1356.56 791.756 1347.01 834.374C1343.52 849.977 1337.24 864.298 1323.04 873.082C1308.64 879.037 1295.38 877.818 1280.07 877.693L1301.14 792.666Z" fill="#31262A"/>
<path d="M176.541 750.887C236.025 729.919 282.79 730.918 332.213 773.08C352.224 753.417 379.878 727.353 409.4 749.36C414.766 753.361 415.144 762.376 414.809 768.345C413.161 777.127 410.282 786.038 407.699 794.625C405.175 802.526 401.335 814.484 399.749 822.574C397.188 831.832 395.176 840.972 389.739 848.967C385.15 855.245 380.22 859.799 372.203 860.683C326.353 865.741 318.13 792.009 269.936 797.825C240.072 801.428 218.759 834.461 209.852 860.602C206.166 871.556 202.151 882.913 199.039 894.003C193.591 911.655 186.701 948.671 191.818 966.822C195.026 980.596 197.816 987.498 209.297 996.622C218 1001.83 229.999 1002.49 240.815 999.377C261.098 993.549 271.791 956.816 268.787 938.231C268.025 933.515 255.149 929.346 250.296 927.526C247.69 926.902 242.645 925.48 240.474 924.102C227.466 915.844 225.347 897.151 242.335 892.394C249.184 891.135 256.011 891.142 262.963 891.17C309.278 891.352 355.366 891.436 401.7 891.943C419.366 892.137 416.473 909.115 407.922 918.642C393.595 932.854 376.219 930.18 370.156 952.814C366.856 965.133 362.796 978.808 359.319 991.451C358.323 995.375 357.338 999.628 356.033 1003.44C354.442 1008.44 353.02 1013.03 351.671 1018.13C350.387 1023.25 349.19 1028.05 347.621 1033.1C343.974 1043.29 340.548 1055.06 329.77 1060.08C319.098 1065.05 294.617 1062.39 283.796 1058.83C275.774 1054 273.268 1048.56 270.298 1039.97C268.725 1035.37 266.741 1028.6 264.181 1024.68C260.486 1030.72 255.585 1035.93 249.784 1039.98C180.038 1093.37 77.8356 1058.41 65.3037 969.046C57.3691 912.46 77.1638 845.835 110.428 799.934C112.205 796.854 115.023 793.984 117.438 791.289C134.419 774.067 144.097 767.478 165.509 756.133C168.397 754.037 173.119 752.309 176.541 750.887Z" fill="#FFFDF1"/>
<path d="M201.536 359.442L212.291 359.43C225.188 359.456 239.07 359.729 251.884 359.434L262.415 359.438C301.601 359.514 356.155 355.305 390.596 369.91C394.911 371.724 399.038 373.673 402.645 376.744L407.033 380.169C411.095 382.796 412.321 384.422 415.543 388.079C438.386 417.573 434.327 446.11 421.763 478.468C420.042 482.743 419.388 484.72 416.69 488.421L413.286 494.139C410.869 497.949 409.318 500.753 406.06 503.873C385.449 526.009 373.623 530.012 346.076 540.27C343.168 540.961 336.851 542.63 334.176 542.828L315.995 545.824C309.781 546.875 307.12 547.012 300.851 547.07L242.386 547.198C238.407 560.894 222.048 604.887 228.487 616.295C232.894 624.102 247.818 631.829 245.647 641.794C245.072 644.428 243.745 646.572 241.432 647.998C236.716 650.905 231.223 651.552 225.812 652.047C210.314 653.465 108.267 654.081 97.19 651.064C93.4764 650.053 89.6629 648.029 87.6915 644.581C86.3469 642.196 86.0142 639.37 86.7678 636.738C89.1764 628.433 106.005 621.326 111.53 611.554C116.341 603.043 118.54 595.252 120.354 585.55C123.259 574.55 126.368 563.606 129.68 552.722C131.245 548.12 132.6 543.368 133.876 538.677C141.211 511.713 149.711 484.827 156.552 457.751C158.984 447.523 162.872 435.224 165.814 424.959C171.873 409.745 173.639 397.366 165.801 382.616C152.168 356.963 185.446 359.423 201.536 359.442Z" fill="#FFFDF1"/>
<path d="M284.456 399.101C318.218 398.564 334.415 400.103 325.857 442.721C321.627 463.785 312.566 490.682 293.635 502.917C280.917 509.132 267.244 507.727 253.245 507.581L284.456 399.101Z" fill="#31262A"/>
<path d="M612.657 355.128C618.812 354.24 623.208 354.013 629.366 353.744C672.585 353.93 724.427 362.443 730.367 415.418C732.22 426.306 729.788 440.722 726.45 451.262C724.771 456.115 723.748 459.17 722.682 464.164C721.724 467.562 720.766 471.217 719.714 474.56C713.723 492.533 706.512 518.213 701.703 536.712C700.816 540.174 699.851 544.697 698.309 547.8L697.994 549.421C696.241 556.604 690.954 576.879 688.239 583.74C684.173 596.631 678.095 610.665 684.571 623.529C686.549 627.458 690.17 631.799 692.525 635.598C689.756 647.298 684.453 651.743 672.134 652.49C654.716 653.544 636.819 651.998 619.363 652.661C614.918 653.134 611.64 652.912 607.17 652.719C592.298 651.942 550.511 656.113 541.789 646.065C536.314 633.168 559.986 622.212 566.221 614.508C570.212 609.577 573.2 597.497 574.806 590.972C575.671 587.413 577.071 583.626 578.268 580.127L583.803 562.601L515.148 562.585C509.236 574.801 491.347 607.512 496.823 618.557C506.326 637.724 519.921 651.78 481.509 652.577C477.026 653.204 473.652 652.909 469.13 652.696C464.732 652.412 458.82 652.61 454.301 652.627C449.564 653.178 445.656 652.909 440.934 652.716C428.848 651.555 394.258 657.693 396.322 637.703C397.683 624.518 428.039 613.237 439.068 604.393C440.522 602.323 444.311 598.22 446.129 596.14C449.913 591.032 453.203 583.772 455.698 577.949C457.397 573.658 458.282 572.018 460.649 568.036C476.408 537.361 490.386 505.187 505.886 474.313C517.475 451.228 527.587 427.567 540.505 405.127C542.274 401.418 544.185 399.17 546.676 395.93L549.957 391.682C552.783 387.614 553.603 386.669 557.219 383.28C570.093 371.306 575.4 367.601 591.701 360.647C596.032 358.648 598.095 358.271 602.801 357.23C606.04 356.795 609.454 355.885 612.657 355.128Z" fill="#FFFDF1"/>
<path d="M598.658 413.999C635.325 410.071 618.29 448.165 612.334 467.812L596.781 518.89L559.292 518.866L535.312 518.849C547.177 492.089 560.807 464.318 573.314 437.772C578.881 425.958 586.132 417.938 598.658 413.999Z" fill="#31262A"/>
<path d="M783.385 861.321C779.178 851.024 757.204 842.365 771.452 830.141C791.699 813.577 825.462 808.87 850.926 808.162C886.156 807.183 904.826 823.688 905.345 858.068C910.161 850.837 915.547 844.584 921.434 838.234C934.944 845.813 966.836 856.953 981.241 853.098C982.875 852.645 984.489 852.106 986.065 851.48C993.316 855.893 995.646 860.795 1004.58 865.14C1012.43 868.652 1020.47 872.201 1028.83 874.244C1033.24 875.124 1037.94 875.954 1042.22 877.25C1048.84 879.279 1055.54 879.276 1061.27 881.096C1058.76 883.673 1057.83 895.579 1055.51 901.646C1049.4 920.048 1042.46 942.022 1037.19 960.705C1036.08 964.737 1034.97 969.394 1033.18 973.115L1031.28 979.881C1030.25 983.428 1028.71 989.344 1027.27 992.543C1025.38 998.362 1023.1 1003.76 1028.66 1008.19C1038.53 1010.43 1041.38 999.938 1048.73 999.184C1050.77 1000.8 1051.21 1001.75 1051.48 1004.42C1055.33 1042.93 1017.08 1062.2 984.644 1065.64C977.422 1066.33 970.171 1066.54 962.925 1066.26C956.988 1066.05 952.417 1065.29 946.639 1064.06L939.492 1061.99C933.757 1060.44 929.187 1058.06 924.225 1054.89C916.424 1049.1 913.193 1045.88 907.653 1038.28C900.992 1029.14 899.432 1013.03 901.588 1002.12C907.519 966.362 929.159 930.253 937.996 895.301C941.755 880.435 922.535 876.453 909.244 886.001C903.514 890.184 898.839 895.646 895.587 901.951C880.363 931.719 870.469 987.488 858.717 1020.44C854.823 1031.35 895.44 1058.2 853.966 1061.43C846.968 1063.14 732.129 1063.04 723.865 1061.45C721.5 1061.32 714.012 1058.72 712.235 1057.22C703.506 1049.86 717.017 1038.67 723.167 1034.97C726.218 1033.13 729.162 1030.81 731.836 1027.94L732.531 1027.18C734.39 1024.14 736.508 1019.82 738.209 1016.58C742.335 1005.26 746.039 991.896 749.551 980.248C751.344 971.105 759.184 947.97 762.313 938.333C765.428 930.783 771.031 911.008 773.21 902.956C776.654 889.374 783.611 875.219 783.385 861.321Z" fill="#FFFDF1"/>
<path d="M907.653 1038.28C919.14 1000.82 959.745 1044.08 925.921 1054.39C925.358 1054.57 924.793 1054.73 924.225 1054.89C916.424 1049.1 913.193 1045.88 907.653 1038.28Z" fill="#FFFDF1"/>
<path d="M723.865 1061.45C721.5 1061.32 714.012 1058.72 712.235 1057.22C703.506 1049.86 717.017 1038.67 723.167 1034.97C726.218 1033.13 729.162 1030.81 731.836 1027.94L732.531 1027.18C744.82 1035.88 749.396 1047.62 742.521 1061.7C737.438 1061.58 728.604 1061.12 723.865 1061.45Z" fill="#FFFDF1"/>
<path d="M1329.93 359.449C1339.85 359.397 1350.32 359.171 1360.19 359.416C1376.52 360.079 1385.68 361.944 1394.35 376.83C1396.35 385.604 1396.12 392.504 1393 401.118L1391.6 406.446C1390.22 411.473 1388.76 417.435 1387.01 422.263C1381.26 443.104 1376.84 466.868 1347.76 458.649C1340.7 456.653 1337.29 453.848 1333.8 447.605C1327 437.435 1327.24 405.654 1314.38 402.968C1300.28 400.024 1275.57 401.844 1260.52 401.496C1253.4 426.886 1244.98 454.596 1238.57 479.954L1259.24 479.928L1260.15 479.44C1276.52 470.453 1289.19 446.215 1310.98 452.268C1330.07 457.575 1319.15 479.339 1315.72 492.189C1312.06 505.938 1307.43 519.738 1303.24 533.341C1298.89 546.438 1293 549.978 1279.87 552.187C1266.6 548.52 1262.79 543.258 1258.55 530.556C1253.49 515.435 1241.51 516.757 1227.91 517.073C1219.4 547.554 1210.95 580.041 1201.86 610.185C1224.73 610.356 1249.25 615.068 1266.44 598.399C1285.98 579.459 1310.32 534.918 1342.15 558.247C1352.82 566.168 1338.58 602.182 1335.4 612.675C1333.45 623.61 1329.12 636.896 1320.73 644.453C1309.23 651.657 1302.09 652.256 1288.71 652.624C1281.66 653.451 1262.8 652.895 1255.53 652.649C1235.83 651.843 1209.72 652.429 1189.9 652.649C1186.11 652.872 1181.31 652.805 1177.43 652.865L1172.7 652.604C1168.62 653.004 1164.13 652.777 1159.99 652.675C1153.28 652.331 1144.87 652.604 1138.01 652.663C1134.13 653.066 1129.25 652.758 1125.26 652.626L1120.48 652.749C1116.64 652.95 1111.89 652.734 1107.98 652.657C1096.52 652.2 1055.1 657.803 1063.66 635.451C1066.51 626.431 1084.59 620.629 1087.7 613.158C1098.21 587.939 1107.03 554.752 1113.52 528.552C1117.15 515.107 1120.97 501.716 1124.98 488.38C1127.79 480.995 1133.69 459.952 1135.17 452.431C1138.93 439.094 1142.65 424.969 1147.01 411.876C1152.31 392.399 1143.41 391.434 1140.05 373.899C1137.37 359.997 1158.85 359.61 1167.27 359.432L1180.1 359.441C1191.38 359.454 1204.15 359.732 1215.31 359.434L1227.87 359.451L1329.93 359.449Z" fill="#FFFDF1"/>
<path d="M1138.01 652.663C1137.71 648.211 1137.42 645.128 1140.52 641.402C1142.41 639.135 1145.13 637.726 1148.07 637.494C1151.1 637.254 1154.09 638.268 1156.35 640.298C1158.81 642.503 1160.2 645.66 1160.17 648.963C1160.17 650.218 1160.09 651.426 1159.99 652.675C1153.28 652.331 1144.87 652.604 1138.01 652.663Z" fill="#FFFDF1"/>
<path d="M1288.71 652.624C1292.48 635.269 1308.6 631.802 1320.73 644.453C1309.23 651.657 1302.09 652.256 1288.71 652.624Z" fill="#FFFDF1"/>
<path d="M921.434 838.235C862.297 803.448 861.297 721.964 889.136 667.162C893.655 658.267 899.157 647.404 911.338 651.14C958.596 665.632 997.647 699.015 1011.35 747.407C1065.21 683.076 1150.8 679.198 1225.2 707.251C1233.58 710.415 1236.75 713.651 1239.98 721.725C1238.73 729.034 1237.53 734.312 1235.65 741.491C1232.88 754.783 1223.49 780.163 1215.95 791.482C1213.82 795.007 1211.74 798.556 1209.7 802.129C1199.15 820.709 1183.76 836.141 1167.47 849.787C1136.17 872.254 1100.51 886.265 1061.27 881.096C1055.54 879.277 1048.84 879.279 1042.22 877.25C1037.94 875.954 1033.24 875.124 1028.83 874.244C1020.47 872.201 1012.43 868.652 1004.58 865.14C995.646 860.795 993.316 855.893 986.065 851.481C984.489 852.106 982.875 852.645 981.241 853.098C966.835 856.953 934.944 845.813 921.434 838.235Z" fill="#FFFDF1"/>
<path d="M1122.15 705.976C1157.32 701.929 1192.74 710.195 1225.24 723.044C1221.19 741.903 1217.11 755.917 1209.24 773.316C1181.27 835.202 1118.63 879.407 1049.12 864.856C1032.92 861.465 1021.66 857.038 1006.61 850.005C1043.61 838.122 1071.37 824.686 1104.5 804.746C1128.11 790.235 1155.5 769.279 1175.05 749.923C1115.38 790.073 1066.73 817.561 999.774 845.267C999.088 810.824 1002.7 781.658 1025.14 753.591C1049.19 723.505 1084.84 710.103 1122.15 705.976Z" fill="#2E8E37"/>
<path d="M906.932 664.655C984.074 692.093 1028 758.979 981.202 834.928C974.464 793.984 951.014 741.359 925.946 708.449L925.255 709.123C947.985 751.554 963.524 793.371 977.267 839.245C892.89 837.665 868.032 751.161 897.609 683.819C900.561 677.098 903.475 671.158 906.932 664.655Z" fill="#2E8E37"/>
<path d="M1466.78 359.287L1479.42 359.438L1491.76 359.449L1504.27 359.433C1556.97 359.248 1553.74 357.746 1578.15 404.973C1580.48 409.191 1581.97 412.145 1583.88 416.558L1587.06 423.129C1589.41 427.302 1591.02 430.124 1592.82 434.539C1604.71 460.103 1620.95 492.125 1634 517.064C1644.2 483.228 1653.15 448.855 1663.38 414.692C1672.83 383.204 1645.44 387.468 1657.66 364.579C1658.59 362.837 1667.18 360.193 1669.65 360.058C1690.33 358.931 1711.71 359.551 1732.45 359.729C1735.64 359.757 1743.64 362.371 1744.87 365.393C1752.06 383.183 1728.55 387.611 1721.18 399.259C1715.33 409.427 1712.85 421.968 1710.44 431.822L1707.09 443.667C1703.65 454.6 1699.36 469.406 1696.73 480.64C1695.69 484.532 1694.67 488.655 1693.46 492.473C1684.54 520.714 1676.24 553.282 1668.23 582.085C1661.38 611.546 1652.38 654.725 1615.27 654.517C1609.62 654.486 1603.81 654.406 1598.31 652.955C1569.45 641.489 1558.52 607.909 1545.49 580.612C1541.82 574.78 1531.75 552.763 1529.19 546.116C1517.68 521.813 1505.11 496.383 1494.13 471.975L1467.13 565.92C1463.5 578.565 1456.51 596.018 1455.67 608.717C1455.37 613.31 1457.11 617.807 1459.33 621.731C1462.56 627.437 1469.55 634.86 1467.55 641.869C1466.5 645.537 1463.56 648.086 1460.22 649.672C1452.11 653.538 1392.27 654.184 1382.84 650.772C1379.98 649.736 1377.22 647.865 1376.04 644.934C1374.7 641.583 1375.42 637.317 1377.02 634.162C1380.8 626.679 1390.3 622.572 1396.34 617.053C1406.13 608.116 1416.16 565.893 1419.05 552.385C1419.96 548.608 1421.36 544.288 1422.48 540.51C1426.01 530.714 1432.73 505.594 1435.23 495.405C1435.75 492.517 1437.78 486.252 1438.68 483.194C1446.68 458.87 1454.5 428.095 1461.56 403.038C1453.82 387.223 1437.78 362.56 1466.78 359.287Z" fill="#FFFDF1"/>
<path d="M875.377 359.45C892.246 359.157 903.068 358.19 913.374 373.629C926.08 394.272 940.926 426.331 952.039 448.68C957.093 456.953 963.12 470.157 967.454 479.214C971.689 488.395 981.231 508.659 986.326 516.971L1007.32 444.184C1011.07 431.203 1017.23 415.801 1018.06 402.322C1018.29 398.376 1017.02 394.592 1015.11 391.195C1011.55 384.917 1004.16 377.735 1006.42 369.923C1007.37 366.561 1009.19 364.632 1012.27 363.138C1022.73 358.057 1080.31 357.357 1090.91 361.237C1093.64 362.236 1096.13 363.639 1097.42 366.384C1098.85 369.425 1098.65 374.167 1097.27 377.216C1093.27 386.013 1080.62 390.791 1074.3 398.263C1074.16 398.43 1074.01 398.593 1073.88 398.759C1067.8 405.896 1037.21 519.53 1033.54 535.934C1033.09 537.69 1030.82 545.917 1030.69 547.196L1029.11 551.804L1026.29 562.053C1023.04 572.343 1017.38 591.302 1015.24 601.687C1014.32 604.916 1013.14 609.616 1011.94 612.603C1008.91 620.664 1006.83 625.891 1002.97 633.546C1000.25 638.167 999.571 639.454 995.714 643.079C983.619 654.28 964.499 657.667 949.122 652.157C927.188 644.298 916.978 620.753 907.637 601.327C905.802 598.513 904.098 594.321 902.688 591.158C893.045 568.872 880.234 543.452 869.661 521.255C867.783 518.661 866.099 514.305 864.765 511.22C858.8 498.147 852.693 485.139 846.447 472.197L821.508 558.677C816.725 575.193 811.7 590.821 808.502 607.74C804.9 626.8 834.44 636.604 812.044 650.507C808.472 651.353 804.687 652.438 801.043 652.537L794.53 652.612C790.725 653.05 787.061 652.777 783.236 652.622C773.309 652.272 761.87 652.57 751.83 652.591C746.467 652.94 745.056 652.975 739.796 652.1L733.623 651.048C727.813 646.516 727.666 646.328 727.349 638.673C732.35 622.978 750.812 621.894 755.61 607.051C763.48 582.697 770.27 556.866 777.178 532.202L813.832 402.969C805.021 385.666 790.048 357.865 824.51 359.128C829.553 359.313 835.117 359.3 840.21 359.388C851.932 359.547 863.656 359.568 875.377 359.45Z" fill="#FFFDF1"/>
<path d="M751.831 652.591C761.642 639.503 773.249 640.282 783.236 652.622C773.309 652.272 761.87 652.57 751.831 652.591Z" fill="#FFFDF1"/>
<path d="M869.661 521.255C879.399 518.418 890.871 519.452 899.816 524.368C908.957 529.464 915.69 537.989 918.53 548.06C921.459 558.264 920.06 569.225 914.662 578.367C911.531 583.717 907.698 587.572 902.689 591.158C893.045 568.873 880.234 543.453 869.661 521.255Z" fill="#FFFDF1"/>
<path d="M600.352 805.873C606.472 805.991 611.675 806.091 617.795 806.684L619.134 807.051C625.159 807.076 627.194 807.197 633.076 808.403C661.443 813.616 677.561 818.421 697.063 840.4C700.581 844.492 701.352 846.359 703.74 851.274C705.217 856.182 706.892 861.393 708.17 866.325C708.546 872.127 708.88 875.756 708.265 881.614C705.424 900.206 699.016 916.912 682.903 927.883C645.567 953.302 588.798 952.903 546.497 947.808C548.924 989.653 571.087 992.843 606.773 992.592C621.834 992.485 660.298 976.111 668.326 978.431C670.451 980.364 671.725 981.901 671.558 985.081C670.153 1012.07 651.206 1031.56 630.039 1045.44C625.329 1048.51 623.151 1049.71 618.023 1052.01C602.683 1057.96 591.659 1061.36 575.076 1062.8C572.051 1063.2 561.836 1064.29 559.105 1063.62C533.37 1062.53 519.631 1060.91 495.769 1051.23C484.595 1047.55 471.018 1037.19 462.774 1028.85C440.993 1002.88 437.328 982.182 438.056 948.753C438.512 935.776 441.953 919.915 445.768 907.516C453.182 886.097 459.143 873.042 473.403 855.402C474.859 852.25 479.912 847.877 482.625 845.348C488.876 840.049 494.283 835.951 500.903 831.099C504.974 827.832 508.209 826.379 512.816 824.067C543.545 808.797 566.791 806.099 600.352 805.873Z" fill="#FFFDF1"/>
<path d="M586.39 845.523C591.665 846.141 594.907 847.929 595.564 853.787C598.435 879.356 588.542 913.261 560.561 919.161L550.111 919.33C550.379 918.03 550.654 916.731 550.935 915.434C555.955 892.303 565.426 859.011 586.39 845.523Z" fill="#31262A"/>
<path d="M1530.5 869.296C1537.03 859.711 1543.37 851.9 1551.92 843.995C1598.65 800.849 1676 797.39 1733.68 817.028C1738.9 819.166 1743.79 821.423 1748.28 824.931L1756.61 831.783C1760.84 835.757 1762.65 837.333 1765.9 842.151C1780.96 868.683 1779.07 895.202 1760.17 919.369C1757.55 922.283 1753.65 926.553 1750.05 928.299C1744.48 931.721 1740.75 933.889 1734.82 936.784C1728.65 939.595 1726.61 940.304 1720.12 942.067C1685.56 951.453 1649.41 953.396 1614.06 947.768C1615.69 985.942 1635.81 993.375 1670.99 992.785C1692.27 992.437 1710.97 981.921 1731.44 978.016C1734.38 977.426 1735.69 978.296 1737.72 980.036C1739.88 985.091 1737.79 998.178 1735.72 1002.71C1726.9 1022.1 1714.8 1034.09 1697.44 1045.48C1692.94 1048.33 1690.64 1049.78 1685.78 1051.89C1671.89 1057.23 1665.61 1059.33 1651.07 1061.93C1645.3 1062.8 1642.32 1063.28 1636.4 1063.26C1623.53 1063.83 1610.64 1063.15 1597.89 1061.26C1565.01 1056.09 1539.32 1042.43 1519.76 1015.45C1513.12 1007.25 1508.63 991.393 1506.94 981.07C1504.02 947.232 1505.37 935.284 1515.1 901.721C1517.56 892.595 1524.66 876.706 1530.5 869.296Z" fill="#FFFDF1"/>
<path d="M1653.72 845.549C1658.99 845.754 1662.42 848.239 1663.01 853.665C1665.85 879.573 1656.1 912.926 1628.03 919.165C1624.6 919.356 1621.79 919.819 1618.58 918.72C1617.9 916.402 1618.03 913.347 1618.71 911.085C1625.14 889.529 1633.85 858.174 1653.72 845.549Z" fill="#31262A"/>
</g>
<defs>
<clipPath id="clip0_3_422">
<rect width="1980" height="1128" fill="white"/>
</clipPath>
</defs>
</svg>
